<?xml version="1.0" encoding="utf-8"?>
<!-- Generator: Adobe Illustrator 27.5.0, SVG Export Plug-In . SVG Version: 6.00 Build 0)  -->
<svg version="1.1" id="Capa_1" xmlns="http://www.w3.org/2000/svg" xmlns:xlink="http://www.w3.org/1999/xlink" x="0px" y="0px"
	 viewBox="0 0 395.557 425.196" style="enable-background:new 0 0 395.557 425.196;" xml:space="preserve">
<rect y="0" style="fill:#FFFFFF;" width="395.557" height="425.196"/>
<ellipse style="fill:#A7A9AC;" cx="117.211" cy="374.498" rx="64.044" ry="11.5"/>
<ellipse style="fill:#A7A9AC;" cx="223.757" cy="350.598" rx="106.547" ry="11.5"/>
<g>
	<g>
		<g>
			<g>
				<path style="fill:#BCBEC0;" d="M315.109,336.849c0,7.594-6.154,13.749-13.748,13.749H156.52
					c-7.592,0-13.748-6.155-13.748-13.749V68.065c0-7.594,6.156-13.75,13.748-13.75h144.842c7.594,0,13.748,6.156,13.748,13.75
					V336.849z"/>
				<path style="fill:#2F3944;" d="M310.906,332.763c0,7.428-6.021,13.449-13.451,13.449H160.424
					c-7.428,0-13.449-6.022-13.449-13.449V72.151c0-7.429,6.021-13.451,13.449-13.451h137.031c7.43,0,13.451,6.023,13.451,13.451
					V332.763z"/>
				<path style="fill:#65BEBD;" d="M301.801,305.673c0,6.604-5.353,11.957-11.955,11.957H168.039
					c-6.604,0-11.955-5.353-11.955-11.957V95.038c0-6.605,5.352-11.958,11.955-11.958h121.807c6.602,0,11.955,5.353,11.955,11.958
					V305.673z"/>
				<g>
					<path style="fill:#FFFFFF;" d="M240.5,72.151c0,0.929-0.752,1.682-1.68,1.682h-28.582c-0.928,0-1.684-0.753-1.684-1.682l0,0
						c0-0.928,0.756-1.681,1.684-1.681h28.582C239.748,70.471,240.5,71.224,240.5,72.151L240.5,72.151z"/>
					<path style="fill:#FFFFFF;" d="M249.328,72.151c0,1.393-1.131,2.521-2.521,2.521c-1.393,0-2.523-1.129-2.523-2.521
						c0-1.392,1.131-2.521,2.523-2.521C248.197,69.63,249.328,70.76,249.328,72.151z"/>
				</g>
				<g>
					<path style="fill:#FFFFFF;" d="M246.441,331.966c0,1.213-0.986,2.196-2.199,2.196h-30.602c-1.217,0-2.199-0.983-2.199-2.196
						v-5.133c0-1.213,0.982-2.197,2.199-2.197h30.602c1.213,0,2.199,0.984,2.199,2.197V331.966z"/>
					<path style="fill:#A7A9AC;" d="M246.441,329.68v-2.847c0-1.213-0.986-2.197-2.199-2.197h-30.602
						c-1.217,0-2.199,0.984-2.199,2.197v2.847H246.441z"/>
				</g>
				<path style="fill:#BCBEC0;" d="M231.043,54.315H156.52c-7.592,0-13.748,6.156-13.748,13.75v268.783
					c0,7.594,6.156,13.749,13.748,13.749h74.523V54.315z"/>
			</g>
			<g>
				<path style="fill:#A7A9AC;" d="M356.332,144.741h-0.242c-16.643-14.323-33.289-28.646-49.936-42.97c-5.047,0-7.568,0-12.615,0
					c-5.049,0-7.57,0-12.617,0c-5.045,0-7.57,0-12.617,0c-5.045,0-7.57,0-12.617,0c-5.047,0-7.57,0-12.615,0
					c-5.051,0-7.572,0-12.619,0c-5.049,0-7.57,0-12.617,0c-5.047,0-7.572,0-12.619,0c-5.045,0-7.568,0-12.617,0
					c-5.045,0-7.57,0-12.617,0c-5.047,0-7.568,0-12.613,0c-5.049,0-7.572,0-12.617,0c-16.338,14.323-32.672,28.646-49.004,42.97
					h0.008c-0.002,0.053-0.008,0.104-0.008,0.156v3.885c0,4.809,3.805,8.705,8.502,8.705h3.793c4.697,0,8.504-3.896,8.504-8.705
					v-3.885c0-0.053-0.008-0.104-0.008-0.156c0.021,0,0.047,0,0.068,0c0.004,0,0.008,0,0.008,0c0,0.053-0.008,0.104-0.008,0.156
					v3.885c0,4.809,3.807,8.705,8.504,8.705h3.793c4.695,0,8.504-3.896,8.504-8.705v-3.885c0-0.053-0.008-0.104-0.008-0.156
					c0.021,0,0.047,0,0.068,0c0.023,0,0.049,0,0.074,0c-0.002,0.053-0.01,0.104-0.01,0.156v3.885c0,4.809,3.809,8.705,8.502,8.705
					h3.795c4.697,0,8.504-3.896,8.504-8.705v-3.885c0-0.053-0.008-0.104-0.008-0.156c0,0,0.004,0,0.006,0c0.021,0,0.047,0,0.068,0
					c0,0.053-0.004,0.104-0.004,0.156v3.885c0,4.809,3.805,8.705,8.5,8.705h3.795c4.695,0,8.502-3.896,8.502-8.705v-3.885
					c0-0.053-0.006-0.104-0.008-0.156h0.008c0.045,0,0.09,0,0.135,0c0,0.053-0.008,0.104-0.008,0.156v3.885
					c0,4.809,3.807,8.705,8.502,8.705h3.797c4.693,0,8.5-3.896,8.5-8.705v-3.885c0-0.053-0.006-0.104-0.006-0.156
					c0.023,0,0.051,0,0.076,0c-0.002,0.053-0.01,0.104-0.01,0.156v3.885c0,4.809,3.809,8.705,8.502,8.705h3.797
					c4.695,0,8.502-3.896,8.502-8.705v-3.885c0-0.053-0.008-0.104-0.008-0.156c0.047,0,0.096,0,0.141,0
					c0,0.053-0.006,0.104-0.006,0.156v3.885c0,4.809,3.805,8.705,8.502,8.705h3.795c4.695,0,8.502-3.896,8.502-8.705v-3.885
					c0-0.053-0.006-0.104-0.01-0.156c0.027,0,0.055,0,0.078,0c0,0.053-0.006,0.104-0.006,0.156v3.885
					c0,4.809,3.805,8.705,8.502,8.705h3.795c4.695,0,8.5-3.896,8.5-8.705v-3.885c0-0.053-0.008-0.104-0.008-0.156
					c0.049,0,0.096,0,0.145,0c-0.002,0.053-0.01,0.104-0.01,0.156v3.885c0,4.809,3.809,8.705,8.504,8.705h3.795
					c4.693,0,8.502-3.896,8.502-8.705v-3.885c0-0.053-0.008-0.104-0.008-0.156c0.025,0,0.051,0,0.076,0
					c0,0.053-0.008,0.104-0.008,0.156v3.885c0,4.809,3.807,8.705,8.502,8.705h3.795c4.695,0,8.504-3.896,8.504-8.705v-3.885
					c0-0.053-0.01-0.104-0.01-0.156c0.047,0,0.096,0,0.143,0c0,0.053-0.006,0.104-0.006,0.156v3.885c0,4.809,3.805,8.705,8.5,8.705
					h3.797c4.693,0,8.502-3.896,8.502-8.705v-3.885c0-0.053-0.006-0.104-0.008-0.156c0.025,0,0.051,0,0.076,0
					c-0.002,0.053-0.008,0.104-0.008,0.156v3.885c0,4.809,3.805,8.705,8.502,8.705h3.797c4.691,0,8.5-3.896,8.5-8.705v-3.885
					C356.34,144.845,356.334,144.794,356.332,144.741z"/>
				<g>
					<path style="fill:#801713;" d="M105.756,137.796c-0.002,0.053-0.008,0.103-0.008,0.156v3.886c0,4.807,3.805,8.704,8.502,8.704
						h3.793c4.697,0,8.504-3.897,8.504-8.704v-3.886c0-0.054-0.008-0.104-0.008-0.156H105.756z"/>
					<path style="fill:#BF6559;" d="M126.617,137.796c-0.002,0.053-0.01,0.103-0.01,0.156v3.886c0,4.807,3.807,8.704,8.504,8.704
						h3.793c4.695,0,8.504-3.897,8.504-8.704v-3.886c0-0.054-0.008-0.104-0.008-0.156H126.617z"/>
					<path style="fill:#801713;" d="M147.543,137.796c-0.002,0.053-0.01,0.103-0.01,0.156v3.886c0,4.807,3.809,8.704,8.502,8.704
						h3.795c4.697,0,8.504-3.897,8.504-8.704v-3.886c0-0.054-0.008-0.104-0.008-0.156H147.543z"/>
					<path style="fill:#BF6559;" d="M335.549,137.796c-0.002,0.053-0.008,0.103-0.008,0.156v3.886c0,4.807,3.805,8.704,8.502,8.704
						h3.797c4.691,0,8.5-3.897,8.5-8.704v-3.886c0-0.054-0.006-0.104-0.008-0.156H335.549z"/>
					<g>
						<g>
							<path style="fill:#D83633;" d="M126.607,137.796c-6.953,0-13.906,0-20.859,0c16.332-14.324,32.666-28.646,49.004-42.971
								c5.045,0,7.568,0,12.617,0C153.779,109.149,140.193,123.474,126.607,137.796z"/>
							<path style="fill:#F48070;" d="M147.469,137.796c-6.953,0-13.906,0-20.861,0c13.586-14.322,27.172-28.646,40.762-42.971
								c5.045,0,7.566,0,12.613,0C169.143,109.149,158.309,123.474,147.469,137.796z"/>
							<path style="fill:#D83633;" d="M168.332,137.796c-6.955,0-13.906,0-20.863,0c10.84-14.322,21.674-28.646,32.514-42.971
								c5.047,0,7.572,0,12.617,0C184.512,109.149,176.42,123.474,168.332,137.796z"/>
							<path style="fill:#F48070;" d="M189.193,137.796c-6.953,0-13.906,0-20.861,0c8.088-14.322,16.18-28.646,24.268-42.971
								c5.049,0,7.572,0,12.617,0C199.875,109.149,194.535,123.474,189.193,137.796z"/>
							<path style="fill:#D83633;" d="M210.055,137.796c-6.951,0-13.908,0-20.861,0c5.342-14.322,10.682-28.646,16.023-42.971
								c5.047,0,7.572,0,12.619,0C215.242,109.149,212.648,123.474,210.055,137.796z"/>
							<path style="fill:#F48070;" d="M230.92,137.796c-6.953,0-13.908,0-20.865,0c2.594-14.322,5.188-28.646,7.781-42.971
								c5.047,0,7.568,0,12.617,0C230.609,109.149,230.766,123.474,230.92,137.796z"/>
							<path style="fill:#D83633;" d="M251.781,137.796c-6.951,0-13.908,0-20.861,0c-0.154-14.322-0.311-28.646-0.467-42.971
								c5.047,0,7.568,0,12.619,0C245.975,109.149,248.881,123.474,251.781,137.796z"/>
							<path style="fill:#F48070;" d="M272.646,137.796c-6.955,0-13.908,0-20.865,0c-2.9-14.322-5.807-28.646-8.709-42.971
								c5.045,0,7.568,0,12.615,0C261.342,109.149,266.994,123.474,272.646,137.796z"/>
							<path style="fill:#D83633;" d="M293.508,137.796c-6.951,0-13.908,0-20.861,0c-5.652-14.322-11.305-28.646-16.959-42.971
								c5.047,0,7.572,0,12.617,0C276.709,109.149,285.111,123.474,293.508,137.796z"/>
							<path style="fill:#F48070;" d="M314.371,137.796c-6.955,0-13.908,0-20.863,0c-8.397-14.322-16.799-28.646-25.203-42.971
								c5.047,0,7.572,0,12.617,0C292.068,109.149,303.223,123.474,314.371,137.796z"/>
							<path style="fill:#D83633;" d="M335.232,137.796c-6.955,0-13.908,0-20.861,0c-11.148-14.322-22.303-28.646-33.449-42.971
								c5.047,0,7.568,0,12.617,0C307.438,109.149,321.334,123.474,335.232,137.796z"/>
							<path style="fill:#F48070;" d="M356.09,137.796c-6.951,0-13.904,0-20.857,0c-13.898-14.322-27.795-28.646-41.693-42.971
								c5.047,0,7.568,0,12.615,0C322.801,109.149,339.447,123.474,356.09,137.796z"/>
						</g>
					</g>
					<path style="fill:#BF6559;" d="M168.4,137.796c0,0.053-0.004,0.103-0.004,0.156v3.886c0,4.807,3.805,8.704,8.5,8.704h3.795
						c4.695,0,8.502-3.897,8.502-8.704v-3.886c0-0.054-0.006-0.104-0.008-0.156H168.4z"/>
					<path style="fill:#801713;" d="M189.328,137.796c0,0.053-0.008,0.103-0.008,0.156v3.886c0,4.807,3.807,8.704,8.502,8.704h3.797
						c4.693,0,8.5-3.897,8.5-8.704v-3.886c0-0.054-0.006-0.104-0.006-0.156H189.328z"/>
					<path style="fill:#BF6559;" d="M210.189,137.796c-0.002,0.053-0.01,0.103-0.01,0.156v3.886c0,4.807,3.809,8.704,8.502,8.704
						h3.797c4.695,0,8.502-3.897,8.502-8.704v-3.886c0-0.054-0.008-0.104-0.008-0.156H210.189z"/>
					<path style="fill:#801713;" d="M231.113,137.796c0,0.053-0.006,0.103-0.006,0.156v3.886c0,4.807,3.805,8.704,8.502,8.704h3.795
						c4.695,0,8.502-3.897,8.502-8.704v-3.886c0-0.054-0.006-0.104-0.01-0.156H231.113z"/>
					<path style="fill:#BF6559;" d="M251.975,137.796c0,0.053-0.006,0.103-0.006,0.156v3.886c0,4.807,3.805,8.704,8.502,8.704h3.795
						c4.695,0,8.5-3.897,8.5-8.704v-3.886c0-0.054-0.008-0.104-0.008-0.156H251.975z"/>
					<path style="fill:#801713;" d="M272.902,137.796c-0.002,0.053-0.01,0.103-0.01,0.156v3.886c0,4.807,3.809,8.704,8.504,8.704
						h3.795c4.693,0,8.502-3.897,8.502-8.704v-3.886c0-0.054-0.008-0.104-0.008-0.156H272.902z"/>
					<path style="fill:#BF6559;" d="M293.762,137.796c0,0.053-0.008,0.103-0.008,0.156v3.886c0,4.807,3.807,8.704,8.502,8.704h3.795
						c4.695,0,8.504-3.897,8.504-8.704v-3.886c0-0.054-0.01-0.104-0.01-0.156H293.762z"/>
					<path style="fill:#801713;" d="M314.688,137.796c0,0.053-0.006,0.103-0.006,0.156v3.886c0,4.807,3.805,8.704,8.5,8.704h3.797
						c4.693,0,8.502-3.897,8.502-8.704v-3.886c0-0.054-0.006-0.104-0.008-0.156H314.688z"/>
				</g>
				<g>
					<rect x="142.887" y="76.655" style="fill:#801713;" width="172.223" height="18.17"/>
					<rect x="142.887" y="85.741" style="fill:#A7A9AC;" width="172.223" height="9.084"/>
				</g>
			</g>
		</g>
		<g>
			<g>
				<path style="fill:#FFFFFF;" d="M185.943,214.396h2.294c0.085,1.551,0.436,2.698,1.051,3.441
					c0.615,0.744,1.526,1.115,2.735,1.115c1.037,0,1.877-0.358,2.519-1.075c0.642-0.716,0.963-1.669,0.963-2.855
					c0-1.037-0.3-1.986-0.898-2.848c-0.6-0.861-1.835-1.982-3.706-3.361c-1.872-1.39-3.108-2.572-3.706-3.545
					c-0.599-0.973-0.898-2.118-0.898-3.433c0-1.518,0.5-2.789,1.5-3.811c1-1.021,2.254-1.532,3.762-1.532
					c1.775,0,3.171,0.564,4.188,1.692c1.016,1.128,1.557,2.708,1.62,4.741h-2.246c-0.106-1.455-0.449-2.551-1.026-3.289
					c-0.577-0.738-1.391-1.107-2.438-1.107c-0.974,0-1.749,0.3-2.326,0.899c-0.577,0.599-0.866,1.401-0.866,2.407
					c0,0.513,0.102,1.013,0.305,1.5c0.203,0.487,0.486,0.922,0.85,1.307c0.534,0.557,1.339,1.235,2.414,2.038
					c1.075,0.802,1.751,1.316,2.029,1.54c1.337,1.081,2.294,2.139,2.872,3.177c0.577,1.037,0.866,2.214,0.866,3.529
					c0,1.882-0.535,3.393-1.604,4.532c-1.069,1.139-2.481,1.709-4.235,1.709c-1.883,0-3.348-0.588-4.395-1.765
					C186.515,218.225,185.975,216.557,185.943,214.396z"/>
				<path style="fill:#FFFFFF;" d="M201.087,220.701v-23.759h2.263v8.486c0.684-0.77,1.353-1.332,2.005-1.685
					c0.652-0.353,1.342-0.529,2.069-0.529c1.112,0,1.934,0.361,2.463,1.083c0.529,0.722,0.794,1.832,0.794,3.329v13.075h-2.262
					V208.38c0-1.176-0.145-1.997-0.434-2.463c-0.288-0.465-0.78-0.698-1.476-0.698c-0.557,0-1.097,0.188-1.62,0.562
					c-0.524,0.374-1.038,0.936-1.54,1.685v13.235H201.087z"/>
				<path style="fill:#FFFFFF;" d="M213.777,212.198c0-3.059,0.422-5.313,1.268-6.762c0.845-1.449,2.149-2.174,3.914-2.174
					c1.7,0,2.971,0.738,3.811,2.214c0.839,1.476,1.259,3.717,1.259,6.722c0,2.995-0.42,5.233-1.259,6.714
					c-0.84,1.481-2.11,2.222-3.811,2.222c-1.765,0-3.069-0.727-3.914-2.182C214.199,217.498,213.777,215.247,213.777,212.198z
					 M216.104,212.198c0,2.503,0.219,4.278,0.657,5.327c0.439,1.048,1.161,1.572,2.166,1.572c0.952,0,1.645-0.545,2.078-1.636
					c0.433-1.091,0.649-2.845,0.649-5.262c0-2.428-0.217-4.192-0.649-5.294c-0.434-1.102-1.126-1.652-2.078-1.652
					c-1.005,0-1.727,0.529-2.166,1.588C216.322,207.899,216.104,209.685,216.104,212.198z"/>
				<path style="fill:#FFFFFF;" d="M227.205,226.413v-22.765h1.54l0.755,1.54c0.545-0.652,1.093-1.136,1.643-1.452
					c0.551-0.315,1.121-0.473,1.709-0.473c1.486,0,2.631,0.765,3.434,2.294c0.802,1.53,1.203,3.733,1.203,6.61
					c0,2.888-0.401,5.099-1.203,6.634c-0.803,1.535-1.958,2.302-3.466,2.302c-0.577,0-1.145-0.166-1.7-0.497
					c-0.557-0.331-1.097-0.824-1.62-1.476v7.284H227.205z M229.5,207.321v9.53c0.47,0.727,0.943,1.273,1.419,1.636
					c0.477,0.364,0.971,0.545,1.484,0.545c0.952,0,1.645-0.554,2.077-1.661c0.434-1.107,0.65-2.912,0.65-5.414
					c0-2.364-0.22-4.088-0.658-5.174c-0.438-1.085-1.128-1.628-2.069-1.628c-0.514,0-1.008,0.179-1.484,0.537
					C230.443,206.052,229.97,206.594,229.5,207.321z"/>
				<path style="fill:#FFFFFF;" d="M240.681,226.413v-22.765h1.54l0.755,1.54c0.545-0.652,1.093-1.136,1.644-1.452
					c0.551-0.315,1.121-0.473,1.709-0.473c1.486,0,2.631,0.765,3.434,2.294c0.802,1.53,1.203,3.733,1.203,6.61
					c0,2.888-0.401,5.099-1.203,6.634c-0.803,1.535-1.958,2.302-3.466,2.302c-0.577,0-1.145-0.166-1.7-0.497
					c-0.557-0.331-1.097-0.824-1.62-1.476v7.284H240.681z M242.975,207.321v9.53c0.47,0.727,0.943,1.273,1.419,1.636
					c0.477,0.364,0.971,0.545,1.484,0.545c0.952,0,1.645-0.554,2.077-1.661c0.434-1.107,0.65-2.912,0.65-5.414
					c0-2.364-0.22-4.088-0.658-5.174c-0.438-1.085-1.128-1.628-2.069-1.628c-0.514,0-1.008,0.179-1.484,0.537
					C243.919,206.052,243.445,206.594,242.975,207.321z"/>
				<path style="fill:#FFFFFF;" d="M254.094,199.637v-2.695h2.294v2.695H254.094z M254.094,220.701v-17.054h2.294v17.054H254.094z"
					/>
				<path style="fill:#FFFFFF;" d="M260.397,220.701v-17.054h2.263v1.781c0.684-0.77,1.348-1.332,1.989-1.685
					c0.642-0.353,1.326-0.529,2.053-0.529c1.112,0,1.939,0.364,2.48,1.091c0.54,0.728,0.81,1.835,0.81,3.321v13.075h-2.262V208.38
					c0-1.198-0.142-2.024-0.425-2.479c-0.284-0.455-0.778-0.682-1.484-0.682c-0.577,0-1.142,0.195-1.692,0.585
					c-0.551,0.391-1.04,0.944-1.468,1.661v13.235H260.397z"/>
				<path style="fill:#FFFFFF;" d="M275.029,214.396c-0.503-0.514-0.878-1.179-1.123-1.997c-0.246-0.818-0.369-1.805-0.369-2.96
					c0-1.999,0.371-3.513,1.115-4.54c0.743-1.027,1.831-1.54,3.265-1.54c0.737,0,1.382,0.129,1.933,0.385
					c0.551,0.257,1.014,0.642,1.388,1.155c0.406-0.524,0.837-0.912,1.292-1.163c0.454-0.251,0.954-0.377,1.5-0.377h0.096v2.118
					c-0.117-0.021-0.228-0.04-0.329-0.056c-0.102-0.016-0.211-0.024-0.328-0.024c-0.289,0-0.567,0.062-0.835,0.184
					c-0.267,0.124-0.54,0.313-0.817,0.57c0.171,0.588,0.296,1.187,0.377,1.797c0.08,0.609,0.12,1.235,0.12,1.877
					c0,1.829-0.375,3.232-1.123,4.211c-0.749,0.979-1.818,1.468-3.209,1.468c-0.203,0-0.422-0.013-0.657-0.04
					c-0.235-0.027-0.503-0.067-0.803-0.121c-0.353,0.021-0.657,0.134-0.914,0.337c-0.257,0.203-0.385,0.423-0.385,0.658
					c0,0.235,0.074,0.452,0.225,0.65c0.15,0.198,0.347,0.34,0.594,0.425c0.342,0.118,0.986,0.259,1.933,0.425
					c0.946,0.166,1.703,0.334,2.271,0.505c1.379,0.407,2.345,0.901,2.896,1.484c0.551,0.583,0.826,1.366,0.826,2.351
					c0,1.24-0.546,2.24-1.637,3c-1.091,0.759-2.529,1.139-4.315,1.139c-1.775,0-3.16-0.345-4.155-1.035
					c-0.994-0.689-1.491-1.65-1.491-2.879c0-0.631,0.192-1.214,0.577-1.749c0.385-0.535,1-1.064,1.845-1.588
					c-0.588-0.31-1.018-0.639-1.291-0.987c-0.273-0.347-0.409-0.746-0.409-1.195c0-0.47,0.149-0.901,0.449-1.292
					C273.836,215.201,274.334,214.803,275.029,214.396z M276.922,219.723c-0.823,0.321-1.417,0.679-1.78,1.075
					c-0.364,0.395-0.546,0.877-0.546,1.444c0,0.674,0.313,1.209,0.938,1.605c0.626,0.395,1.484,0.593,2.575,0.593
					c1.187,0,2.106-0.187,2.759-0.562c0.652-0.374,0.978-0.898,0.978-1.572c0-0.717-0.374-1.275-1.123-1.677
					C279.975,220.228,278.708,219.926,276.922,219.723z M277.98,205.22c-0.855,0-1.471,0.324-1.845,0.971
					c-0.374,0.647-0.562,1.73-0.562,3.249c0,1.498,0.188,2.567,0.562,3.208c0.374,0.642,0.989,0.963,1.845,0.963
					c0.813,0,1.398-0.326,1.757-0.979c0.358-0.652,0.537-1.717,0.537-3.193c0-1.486-0.182-2.561-0.545-3.225
					C279.366,205.551,278.783,205.22,277.98,205.22z"/>
			</g>
			<g>
				<path style="fill:#FFFFFF;" d="M212.739,223.015c1.805,0,3.268,1.463,3.268,3.268v8.663c0,1.805-1.463,3.268-3.268,3.268h-8.549
					c-1.805,0-3.268-1.463-3.268-3.268v-8.663c0-1.805,1.463-3.268,3.268-3.268H212.739z M202.898,234.945
					c0,0.703,0.589,1.311,1.292,1.311h8.549c0.722,0,1.311-0.608,1.311-1.311v-8.663c0-0.703-0.589-1.292-1.311-1.292h-8.549
					c-0.703,0-1.292,0.589-1.292,1.292V234.945z"/>
				<path style="fill:#FFFFFF;" d="M226.106,228.334c1.767,0,3.173,1.425,3.173,3.172v5.756c0,0.532-0.418,0.95-0.95,0.95
					c-0.513,0-0.931-0.418-0.931-0.95v-5.756c0-0.703-0.57-1.273-1.292-1.273h-5.775v7.029c0,0.532-0.456,0.95-0.949,0.95
					c-0.532,0-0.95-0.418-0.95-0.95v-7.979c0-0.532,0.399-0.931,0.931-0.95H226.106z"/>
				<path style="fill:#FFFFFF;" d="M231.04,224.421c0-0.532,0.418-0.95,0.969-0.95c0.494,0,0.95,0.418,0.95,0.95v10.62
					c0,0.703,0.569,1.272,1.254,1.272h1.729c0.494,0,0.95,0.437,0.95,0.95c0,0.494-0.456,0.95-0.95,0.95h-1.729
					c-1.748,0-3.173-1.425-3.173-3.172V224.421z"/>
				<path style="fill:#FFFFFF;" d="M237.972,225.922c0-0.532,0.418-0.95,0.969-0.95c0.494,0,0.95,0.418,0.95,0.95v0.608
					c0,0.513-0.456,0.95-0.95,0.95c-0.551,0-0.969-0.437-0.969-0.95V225.922z M239.891,229.265v7.998c0,0.532-0.456,0.95-0.95,0.95
					c-0.551,0-0.969-0.418-0.969-0.95v-7.998c0-0.513,0.418-0.931,0.969-0.931C239.434,228.334,239.891,228.752,239.891,229.265z"/>
				<path style="fill:#FFFFFF;" d="M249.52,228.334c1.767,0,3.173,1.425,3.173,3.172v5.756c0,0.532-0.418,0.95-0.95,0.95
					c-0.513,0-0.931-0.418-0.931-0.95v-5.756c0-0.703-0.57-1.273-1.292-1.273h-5.775v7.029c0,0.532-0.456,0.95-0.949,0.95
					c-0.532,0-0.95-0.418-0.95-0.95v-7.979c0-0.532,0.399-0.931,0.931-0.95H249.52z"/>
				<path style="fill:#FFFFFF;" d="M262.965,228.334c1.728,0,3.153,1.406,3.153,3.153v1.995c0,0.532-0.418,0.95-0.949,0.95h-8.854
					v0.627c0,0.684,0.57,1.273,1.273,1.273h7.257c0.494,0,0.95,0.399,0.95,0.931c0,0.532-0.456,0.95-0.95,0.95h-7.238
					c-1.747,0-3.153-1.406-3.153-3.153v-3.572c0-1.747,1.406-3.153,3.153-3.153H262.965z M256.315,232.552h7.922v-1.083
					c0-0.703-0.569-1.273-1.272-1.273h-5.376c-0.703,0-1.273,0.57-1.273,1.273V232.552z"/>
			</g>
		</g>
	</g>
	<g>
		<polygon style="fill:#D83633;" points="167.549,370.881 66.627,370.881 50.43,282.418 181.254,282.418 		"/>
		<path style="fill:#D1D3D4;" d="M163.176,359.227c-25.742,4.636-54.508-3.715-67.346-28.124c-7.1-13.498-11.031-32.469-7.5-48.685
			h-37.9l16.197,88.463h100.922l2.033-13.123C167.469,358.347,165.328,358.839,163.176,359.227z"/>
		<rect x="39.217" y="257.499" style="fill:#AD2926;" width="149.514" height="24.919"/>
		<path style="fill:#BEC0C2;" d="M175.205,264.418c-24.453,7.824-51.26,9.24-76.65,6.094c-10.053-1.247-20.422-3.027-29.949-6.558
			c-4.002-1.482-8.514-3.54-11.955-6.455H39.217v24.919H188.73v-23.333C184.348,261.174,179.805,262.946,175.205,264.418z"/>
		<rect x="105.504" y="257.499" style="fill:#BCBEC0;" width="25.445" height="24.919"/>
		<rect x="102.916" y="257.499" style="fill:#EA893A;" width="22.426" height="24.919"/>
		<g>
			<path style="fill:#FFD540;" d="M118.645,252.371c0,0,49.031-25.771,25.98-48.062c0,0-27.053-23.329-30.748,42.306
				C113.877,246.615,111.689,255.338,118.645,252.371z M121.068,238.206c2.188-38.84,18.197-25.035,18.197-25.035
				c13.641,13.19-15.375,28.441-15.375,28.441C119.775,243.367,121.068,238.206,121.068,238.206z"/>
			<path style="fill:#C97431;" d="M114.994,251.879c0,0,13.059-53.832-18.904-51.26c0,0-35.387,4.89,11.434,51.034
				C107.523,251.653,112.627,259.059,114.994,251.879z M105.965,240.698c-27.705-27.307-6.766-30.2-6.766-30.2
				c18.914-1.523,11.188,30.334,11.188,30.334C108.984,245.08,105.965,240.698,105.965,240.698z"/>
			<path style="fill:#FBB040;" d="M112.938,249.178c-40.449-51.819-49.379-17.23-49.379-17.23
				c-6.234,31.453,48.744,24.678,48.744,24.678C119.707,255.099,112.938,249.178,112.938,249.178z M101.859,250.776
				c0,0-32.535,4.01-28.846-14.604c0,0,5.285-20.469,29.221,10.196C102.234,246.369,106.24,249.873,101.859,250.776z"/>
			<path style="fill:#FBB040;" d="M115.199,256.33c0,0,54.811,8.018,49.289-23.569c0,0-8.145-34.781-49.756,16.11
				C114.732,248.871,107.832,254.637,115.199,256.33z M125.496,246.306c24.625-30.117,29.445-9.534,29.445-9.534
				c3.266,18.692-29.17,13.947-29.17,13.947C121.412,249.716,125.496,246.306,125.496,246.306z"/>
		</g>
		<polygon style="fill:#A7A9AC;" points="50.43,282.418 52.156,291.846 179.793,291.846 181.254,282.418 		"/>
		<rect x="107.744" y="282.418" style="fill:#BCBEC0;" width="18.377" height="88.463"/>
		<rect x="105.875" y="282.418" style="fill:#FBB040;" width="16.197" height="88.463"/>
		<path style="fill:#FFFFFF;" d="M132.662,293.632h43.297l-9.656,60.74C166.303,354.372,129.236,362.159,132.662,293.632z"/>
	</g>
</g>
</svg>
